HIERARCHY
ROOT Hips
{
	OFFSET 0.0000 0.0000 0.0000
	CHANNELS 6 Xposition Yposition Zposition Zrotation Xrotation Yrotation
	JOINT Spine1
	{
		OFFSET -0.0137 5.0038 -0.0537
		CHANNELS 3 Zrotation Xrotation Yrotation
		JOINT Spine2
		{
			OFFSET -0.0000 7.1253 -0.0298
			CHANNELS 3 Zrotation Xrotation Yrotation
			JOINT Chest
			{
				OFFSET -0.0000 7.5501 -0.8160
				CHANNELS 3 Zrotation Xrotation Yrotation
				JOINT Neck1
				{
					OFFSET -0.1817 26.3113 -0.5533
					CHANNELS 3 Zrotation Xrotation Yrotation
					JOINT Neck2
					{
						OFFSET -0.0000 7.7094 2.3026
						CHANNELS 3 Zrotation Xrotation Yrotation
						JOINT Head
						{
							OFFSET -0.0000 6.1289 1.9537
							CHANNELS 3 Zrotation Xrotation Yrotation
							JOINT Jaw
							{
								OFFSET 0.0026 0.4756 3.0949
								CHANNELS 3 Zrotation Xrotation Yrotation
								End Site
								{
									OFFSET 0.0 1.0 0.0
								}
							}
							JOINT LeftEye
							{
								OFFSET 3.2064 5.3802 7.5869
								CHANNELS 3 Zrotation Xrotation Yrotation
								End Site
								{
									OFFSET 0.0 1.0 0.0
								}
							}
							JOINT RightEye
							{
								OFFSET -3.2224 5.3619 7.5582
								CHANNELS 3 Zrotation Xrotation Yrotation
								End Site
								{
									OFFSET 0.0 1.0 0.0
								}
							}
						}
					}
				}
				JOINT LeftShoulder
				{
					OFFSET 1.6217 23.2372 5.1134
					CHANNELS 3 Zrotation Xrotation Yrotation
					JOINT LeftArm
					{
						OFFSET 14.9198 0.0000 -5.5023
						CHANNELS 3 Zrotation Xrotation Yrotation
						JOINT LeftForeArm
						{
							OFFSET 28.7393 0.0000 -0.0026
							CHANNELS 3 Zrotation Xrotation Yrotation
							JOINT LeftHand
							{
								OFFSET 27.0940 -0.0000 0.0026
								CHANNELS 3 Zrotation Xrotation Yrotation
								JOINT LeftHandThumbEnd
								{
									OFFSET 12.2686 -3.2202 4.8331
									CHANNELS 3 Zrotation Xrotation Yrotation
									End Site
									{
										OFFSET 0.0 1.0 0.0
									}
								}
								JOINT LeftHandMiddleEnd
								{
									OFFSET 19.0120 -0.3129 -0.0340
									CHANNELS 3 Zrotation Xrotation Yrotation
									End Site
									{
										OFFSET 0.0 1.0 0.0
									}
								}
							}
						}
					}
				}
				JOINT RightShoulder
				{
					OFFSET -1.3801 23.1803 5.2142
					CHANNELS 3 Zrotation Xrotation Yrotation
					JOINT RightArm
					{
						OFFSET -15.0372 0.0000 -5.5456
						CHANNELS 3 Zrotation Xrotation Yrotation
						JOINT RightForeArm
						{
							OFFSET -28.7366 0.0000 -0.0026
							CHANNELS 3 Zrotation Xrotation Yrotation
							JOINT RightHand
							{
								OFFSET -27.1336 -0.0000 0.0026
								CHANNELS 3 Zrotation Xrotation Yrotation
								JOINT RightHandThumbEnd
								{
									OFFSET -12.2642 -3.2115 4.8040
									CHANNELS 3 Zrotation Xrotation Yrotation
									End Site
									{
										OFFSET 0.0 1.0 0.0
									}
								}
								JOINT RightHandMiddleEnd
								{
									OFFSET -19.0006 -0.3066 -0.0316
									CHANNELS 3 Zrotation Xrotation Yrotation
									End Site
									{
										OFFSET 0.0 1.0 0.0
									}
								}
							}
						}
					}
				}
			}
		}
	}
	JOINT LeftLeg
	{
		OFFSET 10.0432 -8.4345 2.5957
		CHANNELS 3 Zrotation Xrotation Yrotation
		JOINT LeftShin
		{
			OFFSET -0.0000 -43.2218 -0.8029
			CHANNELS 3 Zrotation Xrotation Yrotation
			JOINT LeftFoot
			{
				OFFSET 0.0000 -42.1551 -3.4815
				CHANNELS 3 Zrotation Xrotation Yrotation
				JOINT LeftToeBase
				{
					OFFSET 0.0000 -5.0595 13.2315
					CHANNELS 3 Zrotation Xrotation Yrotation
					End Site
					{
						OFFSET 0.0 1.0 0.0
					}
				}
			}
		}
	}
	JOINT RightLeg
	{
		OFFSET -10.0473 -8.2953 2.6203
		CHANNELS 3 Zrotation Xrotation Yrotation
		JOINT RightShin
		{
			OFFSET 0.0000 -43.3622 -0.8056
			CHANNELS 3 Zrotation Xrotation Yrotation
			JOINT RightFoot
			{
				OFFSET 0.0000 -42.1174 -3.4784
				CHANNELS 3 Zrotation Xrotation Yrotation
				JOINT RightToeBase
				{
					OFFSET -0.0000 -5.0796 13.2842
					CHANNELS 3 Zrotation Xrotation Yrotation
					End Site
					{
						OFFSET 0.0 1.0 0.0
					}
				}
			}
		}
	}
}
MOTION
Frames: 12
Frame Time: 0.033333
40.4786 99.4743 496.8784 -2.4590 -4.3845 9.8971 2.4586 1.6530 0.6254 -0.3421 -4.1696 0.0977 0.7309 8.8041 -1.8762 5.0148 4.9281 0.9050 -0.2479 -3.5992 0.5579 0.2282 -11.5581 0.3007 -0.0177 0.0510 -0.0758 0.6691 -10.6220 -3.9390 -0.7064 -10.6241 3.8076 -5.5319 11.7298 -8.1920 -69.0348 2.5471 -9.1745 0.4644 0.0146 -29.5987 0.2921 -15.7216 -1.6537 -15.1850 10.6826 15.5292 -59.9525 1.3034 2.4650 10.3176 11.8416 12.7011 63.9519 -7.0566 6.3655 0.2669 -0.0972 30.4826 -9.5574 -12.9013 0.9988 15.4388 7.5131 -16.0021 49.6833 -3.5813 -4.9429 6.1394 -17.7991 11.3076 -0.1692 65.5144 -0.0380 -2.8855 -1.4169 4.8514 1.8498 -6.2650 -2.0886 5.3641 3.5117 -8.0640 0.0142 7.4924 -0.1530 -0.7718 -7.4588 -4.4848 -1.4144 -2.4117 1.0324
40.7977 99.5000 500.9296 -1.7000 -4.1594 8.7000 2.2063 1.8447 0.7010 -0.3760 -4.0777 0.5770 0.2038 8.7182 -1.4625 4.1762 4.5671 1.2396 -0.2712 -3.6701 0.5843 0.2191 -11.6794 0.1027 -0.0143 0.0443 -0.0634 0.6587 -10.5887 -3.9213 -0.6926 -10.6046 3.8135 -6.5352 11.7141 -7.6891 -68.2505 3.0376 -8.3422 0.5381 0.0256 -31.0270 0.7373 -15.8935 -2.0836 -15.1411 10.6852 15.5215 -59.9983 1.3312 2.4086 9.4924 11.7288 13.0127 63.6645 -8.3023 6.2725 0.0634 -0.0749 34.3398 -10.8572 -13.1638 2.4054 15.2607 7.6328 -16.0516 49.8268 -3.4388 -4.8450 3.5175 -21.6051 13.4742 0.1877 59.2429 0.5136 -3.9088 -2.2847 5.2616 1.8463 -6.4888 -2.1182 4.4551 7.2540 -7.4280 0.0274 4.3313 -0.0861 -0.2954 -8.0661 -3.9427 -1.4230 -2.6370 1.0059
41.2422 99.2623 504.7076 -1.2246 -3.7469 7.6129 1.9992 1.9141 0.6585 -0.3796 -4.0399 1.0571 -0.1677 8.7310 -1.1250 3.3535 4.0674 1.5496 -0.2711 -3.7040 0.7191 0.1007 -12.1275 -0.0628 -0.0032 0.0381 -0.0246 0.6492 -10.5513 -3.8739 -0.6632 -10.5895 3.8388 -7.5548 11.6611 -7.2822 -67.4800 3.2065 -7.6033 0.6324 0.0297 -31.6941 1.0533 -16.3675 -2.4093 -15.1196 10.6676 15.5356 -60.0794 1.3276 2.3688 8.8937 11.5637 13.3560 63.0551 -9.4460 6.2722 -0.0687 -0.0649 37.9219 -11.9016 -13.3375 3.7711 15.0962 7.6421 -16.0818 49.8695 -3.4068 -4.7717 1.2105 -24.5412 15.3634 0.3951 50.4645 0.7875 -4.3268 -2.1913 6.1707 1.8457 -6.6791 -2.1787 3.7643 10.0596 -7.1814 0.0093 2.8332 0.0291 0.0042 -9.2499 -3.3513 -1.4267 -2.6993 0.9991
41.7505 98.8295 508.4411 -1.0373 -3.1987 6.6494 1.8564 1.8556 0.5336 -0.3870 -4.0511 1.4344 -0.3241 8.7825 -0.7780 2.6077 3.6218 1.8294 -0.2508 -3.6861 0.8306 -0.0475 -12.7726 -0.0698 0.0110 0.0398 0.0157 0.6455 -10.5394 -3.8368 -0.6330 -10.5940 3.8766 -8.4081 11.6357 -6.9474 -66.9751 3.0390 -6.9883 0.7090 0.0207 -31.6355 1.3832 -16.7903 -2.6140 -15.0522 10.6583 15.5381 -60.1328 1.3119 2.3547 8.2927 11.3499 13.7322 62.4638 -10.5178 6.3045 -0.0737 -0.0323 40.5902 -12.6437 -13.3422 4.7945 15.0242 7.5600 -16.0711 49.8410 -3.4354 -4.7128 -0.5789 -26.2996 16.5748 0.4049 39.0948 0.7804 -4.2571 -1.0389 7.2686 1.8353 -6.6268 -2.2402 3.2172 12.1966 -7.4045 -0.0392 2.5559 0.1401 0.1031 -10.6070 -2.5383 -1.4263 -2.7263 1.0108
42.3871 98.2548 512.3743 -1.1666 -2.6590 5.7235 1.8406 1.7361 0.4754 -0.4029 -4.0854 1.5899 -0.2536 8.7883 -0.3802 2.0249 3.2994 2.1005 -0.2571 -3.6615 0.7891 -0.1028 -13.3034 0.1767 0.0197 0.0477 0.0193 0.6524 -10.5767 -3.8493 -0.6236 -10.6258 3.8931 -8.9308 11.6479 -6.6167 -66.9131 2.6307 -6.3465 0.6205 -0.0138 -31.1030 1.7190 -16.9700 -2.6713 -14.9776 10.6913 15.4734 -60.2312 1.3671 2.2822 7.5896 11.0460 14.1494 62.0791 -11.2748 6.4312 -0.0913 0.0275 42.1002 -13.0206 -13.2026 5.2946 15.0234 7.4732 -16.0179 49.8040 -3.4751 -4.6622 -1.4734 -26.7484 16.7136 0.2329 25.9480 0.6218 -4.1546 0.2037 7.9627 1.7985 -6.2704 -2.2511 2.7086 14.0216 -7.9502 -0.0736 3.0933 0.1686 0.1752 -11.8547 -1.3146 -1.4309 -3.1681 1.0192
43.1659 97.6508 516.5082 -1.4676 -2.1336 4.8570 1.8585 1.5024 0.3669 -0.3967 -4.1633 1.6575 -0.0459 8.7824 -0.0732 1.6371 2.9606 2.2923 -0.3299 -3.5840 0.9501 -0.1458 -13.6626 0.5152 0.0277 0.0594 0.0481 0.6620 -10.6202 -3.8408 -0.6187 -10.6621 3.9370 -9.3174 11.7438 -6.2220 -67.1721 2.1873 -5.7600 0.5337 -0.0090 -30.3673 1.8360 -16.9427 -2.6417 -14.9959 10.7167 15.4046 -60.3259 1.3772 2.1403 6.9409 10.6846 14.5958 61.8454 -11.7173 6.4820 0.0237 0.0702 42.5210 -12.9561 -12.9215 5.3588 15.0569 7.4546 -16.0020 49.9108 -3.3864 -4.7631 -1.3209 -26.5709 15.1258 -0.0191 13.4095 0.3219 -4.3425 0.2814 8.0412 1.6700 -6.0275 -2.2865 2.0025 15.6123 -8.8154 -0.0876 4.3477 0.0801 0.5468 -12.9392 0.1784 -1.4477 -4.2438 0.9602
44.0855 96.9546 520.9051 -1.6167 -1.6343 3.9150 1.6936 1.1807 0.3063 -0.3875 -4.3047 1.7657 0.1836 8.8937 0.0588 1.2622 2.5519 2.4654 -0.3127 -3.6175 1.1275 -0.1644 -13.7283 0.8297 0.0124 0.0642 -0.0359 0.6311 -10.6131 -3.9195 -0.6190 -10.6455 3.8535 -9.7631 11.7277 -5.9093 -67.3891 2.0782 -5.4832 0.5276 -0.0022 -29.5535 1.6319 -17.1706 -2.5297 -15.0607 10.6952 15.3264 -60.4117 1.4007 2.1200 6.7567 10.5720 15.0888 61.3476 -12.1053 6.6755 0.2277 0.0535 41.9519 -12.5133 -12.8804 5.3180 15.0188 7.4689 -15.9824 49.9667 -3.3675 -4.7689 -0.5315 -26.8608 11.9610 -0.0530 5.9432 0.1225 -4.8308 -0.4530 8.4425 1.5549 -6.4386 -2.3572 0.8955 16.8102 -9.6211 -0.1080 6.5635 0.1146 1.2809 -13.8831 1.6624 -1.4381 -5.8790 0.9343
45.1039 96.2462 525.3983 -1.1201 -1.3163 3.0390 1.1034 0.9817 0.3491 -0.4573 -4.4090 1.9992 0.1237 8.9586 0.0582 1.1635 2.1202 2.4379 -0.2713 -3.5961 1.2927 -0.1172 -13.9019 1.0611 0.0049 0.0702 -0.0775 0.6360 -10.5855 -3.9550 -0.6379 -10.6196 3.8105 -9.9439 11.6828 -5.7903 -67.5567 2.1435 -5.8922 0.4473 0.0366 -28.5720 1.3420 -17.1092 -2.0766 -15.0476 10.7112 15.3032 -60.5018 1.4616 2.1206 6.8524 10.8089 15.5083 61.2101 -12.4432 6.5809 0.4129 0.0857 40.6610 -12.2605 -12.8614 5.2312 15.0421 7.5185 -16.0795 50.0332 -3.4021 -4.8197 -0.5228 -28.0092 9.1482 0.0062 6.8924 0.0024 -4.3991 -1.5056 8.7818 1.5474 -6.8120 -2.4082 -1.1032 17.3345 -10.4388 -0.1323 10.3537 0.2543 2.0467 -14.5238 2.9316 -1.4376 -8.5698 0.9952
46.3115 95.6611 530.0066 0.1672 -1.0694 2.2093 0.0099 0.6214 0.3906 -0.6394 -4.5536 2.4036 -0.2283 9.0208 0.0548 1.4710 1.8898 2.2866 -0.2219 -3.6206 1.6449 -0.1823 -13.6891 1.1862 0.0061 0.0703 -0.0776 0.6675 -10.5985 -3.9572 -0.6655 -10.6337 3.8116 -9.9484 11.8058 -5.7571 -67.7515 2.1170 -6.5503 0.3279 0.0611 -27.4105 1.0322 -16.4763 -1.2890 -15.1541 10.7630 15.2725 -60.7175 1.5628 2.1435 7.2246 11.1491 15.8489 61.3889 -12.0879 6.5261 0.3702 0.1033 38.6931 -12.2275 -13.4086 4.9781 15.2496 7.5103 -16.1598 50.1359 -3.5573 -4.7909 -1.8187 -28.7214 7.4648 -0.0057 12.4595 -0.0234 -2.1271 -1.0284 8.3754 1.6860 -7.3118 -2.3973 -4.2314 16.7103 -11.4434 -0.0608 16.1439 0.4110 2.4526 -13.7142 4.3591 -1.5020 -14.0496 1.1605
47.5150 95.3286 535.0318 1.8477 -0.9883 1.3800 -1.2672 0.3150 0.4642 -0.8641 -4.7533 2.7832 -0.7496 9.0294 0.0838 1.9797 1.7419 2.1180 -0.2702 -3.6436 1.8919 -0.1218 -13.5370 1.3800 0.0152 0.0498 -0.0702 0.6895 -10.5944 -3.9530 -0.6677 -10.6459 3.8186 -9.8633 11.7404 -5.7656 -68.1536 2.3609 -7.1755 0.3903 0.0751 -26.1472 0.7055 -16.2032 -0.9770 -15.2055 10.8243 15.3154 -60.5993 1.6524 2.1577 7.7814 11.3283 15.9297 62.0133 -11.2903 6.2510 0.4825 0.1648 35.8874 -12.0955 -13.5844 4.7715 15.2463 7.5318 -16.2169 50.2773 -3.5345 -4.8866 -3.6146 -28.5770 6.1615 0.0167 18.0251 -0.0063 0.1073 2.4313 8.3588 1.7563 -6.5763 -2.3727 -7.9572 14.4230 -12.6715 -0.0682 24.8257 0.6176 2.2126 -10.5936 5.6260 -1.6305 -21.8551 1.4200
48.7354 95.2185 540.0918 3.2309 -1.5009 0.9168 -2.0912 0.4966 0.5046 -1.1119 -4.6993 2.9407 -1.3391 8.7620 0.2169 2.4281 1.7808 1.9817 -0.3345 -3.5541 1.7819 0.0048 -14.0065 1.7546 0.0213 0.0519 -0.0433 0.7136 -10.5369 -3.9148 -0.6786 -10.5880 3.8321 -9.1466 11.9075 -6.0260 -69.0825 2.2286 -7.4828 0.3653 0.0593 -25.1481 0.4927 -15.9758 -0.8779 -15.2765 10.8063 15.5542 -60.6114 1.5467 2.2373 7.7452 11.7957 15.7781 63.8285 -10.5882 5.3900 0.5888 0.2408 32.7063 -11.6769 -14.2238 4.3872 15.4294 7.4664 -16.2102 50.2454 -3.5821 -4.8409 -5.1492 -27.3450 5.1775 0.0300 22.9911 -0.1235 0.5007 2.5876 9.3147 1.6915 -4.5548 -2.2926 -11.0966 10.6066 -13.4577 -0.0100 36.5218 0.8323 0.8789 -3.7555 5.7590 -1.7938 -29.0449 1.6109
49.7205 95.3885 545.1651 4.1759 -2.3903 0.8075 -2.6526 0.9585 0.5446 -1.2477 -4.4909 2.8545 -1.7862 8.5816 0.1619 2.7069 1.8442 1.9328 -0.3819 -3.5141 1.9064 0.0825 -14.3577 1.9346 0.0213 0.0709 -0.0426 0.7202 -10.5112 -3.9202 -0.6873 -10.5519 3.8378 -8.0741 11.9512 -6.3418 -70.0450 1.8832 -7.4728 0.0811 -0.0302 -24.5873 0.4516 -14.8685 -0.6851 -15.4671 10.5824 15.5999 -60.5531 1.3077 2.5836 7.5265 12.2456 15.7566 66.0384 -9.9723 4.4623 0.4154 0.1585 29.1523 -10.6177 -14.7832 3.6169 15.7296 7.5138 -16.3179 50.4971 -3.6472 -4.8741 -6.5579 -24.5132 5.4458 0.0193 26.0998 -0.0471 1.1937 -0.2689 9.1923 1.6166 -2.7435 -2.2628 -13.1489 5.5690 -13.1627 0.1976 49.4973 0.9210 -0.3809 4.9822 2.8282 -1.6605 -25.0673 1.3646
